# xmcd
#
# Track frame offsets:
#	150
#	17147
#	43922
#	63230
#	82080
#	99195
#	118027
#	131012
#	156262
#	171757
#	184805
#	203665
#	225237
#	238367
#	247212
#	266415
#	273857
#
# Disc length: 3837 seconds
#
# Revision: 0
# Processed by: cddbd v1.5.2PL0 Copyright (c) Steve Scherf et al.
# Submitted via: EasyCDDAExtractor 10.0.3.1
#
DISCID=eb0efb11
DTITLE=Various Artist - NASZE NAJLEPSZE PIOSENKI
DYEAR=1900
DGENRE=
TTITLE0=SOJKA - Cud Niepamięci
TTITLE1=DE MONO - Kochać Inaczej
TTITLE2=FORMACJA NIEŻYWYCH SCHABUFF - Baboki
TTITLE3=KULT - Parada Wspomnień
TTITLE4=KAZIK - Spalam Się
TTITLE5=NAZAR - Memory Of You
TTITLE6=ELEKTRYCZNE GITARY - Włosy
TTITLE7=DE MONO - Zostańmy Sami
TTITLE8=TSA - To Boli
TTITLE9=BUZU SQUAT - Kocie Sprawy
TTITLE10=GOLDEN LIFE - Oprócz
TTITLE11=NAZAR - Moja Wolność
TTITLE12=ELEKTRYCZNE GITARY - Dzieci
TTITLE13=KUBA SIENKIEWICZ - Nie Męcz Mnie
TTITLE14=DE MONO - Znowu Jesteś Ze Mną
TTITLE15=MAFIA - Krótka Piosenka O Miłości
TTITLE16=VAROUS MANX - Zanim Zrozumiesz
EXTD=
EXTT0=
EXTT1=
EXTT2=
EXTT3=
EXTT4=
EXTT5=
EXTT6=
EXTT7=
EXTT8=
EXTT9=
EXTT10=
EXTT11=
EXTT12=
EXTT13=
EXTT14=
EXTT15=
EXTT16=
PLAYORDER=
